# xmcd
#
# Track frame offsets: 
#        187
#        15662
#        31939
#        48902
#        63439
#        80264
#        93609
#        114697
#        137877
#
# Disc length: 2139 seconds
#
# Revision: 7
# Processed by: cddbd v1.5.2PL0 Copyright (c) Steve Scherf et al.
# Submitted via: ExactAudioCopy v0.95b3
#
DISCID=71085909
DTITLE=Scorpions - Virgin Killer [BVCP-7375]
DYEAR=1976
DGENRE=Heavy Metal
TTITLE0=Pictured Life
TTITLE1=Catch Your Train
TTITLE2=In Your Park
TTITLE3=Backstage Queen
TTITLE4=Virgin Killer
TTITLE5=Hell-Cat
TTITLE6=Crying Days
TTITLE7=Polar Nights
TTITLE8=Yellow Raven
EXTD=Typed by Slavik YEAR: 1976
EXTT0=
EXTT1=
EXTT2=
EXTT3=
EXTT4=
EXTT5=
EXTT6=
EXTT7=
EXTT8=
PLAYORDER=
